<svg id="Layer_1" data-name="Layer 1" xmlns="http://www.w3.org/2000/svg" viewBox="0 0 389.2 409.45"><path d="M191.53,466.25H80c-7.43,0-8.46-1-8.47-8.29q0-38.25,0-76.5c0-7.76,1-8.75,8.53-8.75l171,0c7.06,0,7.64-.61,7.64-7.77,0-19.5-.07-39,.06-58.49a27.08,27.08,0,0,1,1.5-8.75Q301,183.54,341.92,69.46c4.48-12.53,4.39-12.54,17.92-12.54q45.5,0,91,0c8.87,0,11.59,3.25,8.84,11.82-4.48,14-9.53,27.72-14.48,41.52q-51.63,143.91-103.33,287.8-9.62,26.82-19.17,53.65c-4.25,11.9-8.08,14.62-20.67,14.63q-55.24,0-110.49,0Z" transform="translate(-71.5 -56.91)" fill="#05193e"/><path d="M164,310.89H79.06c-6.42,0-7.51-1.06-7.52-7.59q0-42,0-83.94c0-6.42,1.25-7.73,7.53-7.74q84.93-.1,169.86-.12c6.13,0,7.67,1.6,7.68,7.73q.06,42,.07,83.93c0,6.14-1.48,7.58-7.72,7.58H164Z" transform="translate(-71.5 -56.91)" fill="#05193e"/><path d="M164.58,56.91h83.95c7.55,0,8.66,1.07,8.65,8.67q0,38.72-.07,77.45c0,7.95-1.81,9.77-9.61,9.77q-83.44.06-166.9.08c-7.34,0-8.93-1.53-8.94-8.68q-.07-39.72-.07-79.45c0-6.54,1.23-7.69,8-7.7h85Z" transform="translate(-71.5 -56.91)" fill="#05193e"/></svg>